<?xml version="1.0" encoding="utf-8"?>
<!-- Generator: Adobe Illustrator 19.1.0, SVG Export Plug-In . SVG Version: 6.00 Build 0)  -->
<svg version="1.1" id="Layer_1" xmlns="http://www.w3.org/2000/svg" xmlns:xlink="http://www.w3.org/1999/xlink" x="0px" y="0px"
	 viewBox="0 0 72 72" style="enable-background:new 0 0 72 72;" xml:space="preserve">
<style type="text/css">
	.st0{fill:#4D4D4D;}
	.st1{fill:none;}
	.st2{fill:#FFFFFF;}
</style>
<g>
	<path class="st1" d="M37,28.3V57c5.2-4.6,15.5-7.1,21-7.4V20C51.6,20.4,40.6,23.8,37,28.3z"/>
	<path class="st1" d="M35,28.3c-2.8-4.6-14-7.9-20-8.2v29.5c5.6,0.3,15.4,2.9,20,7.2V28.3z"/>
	<path class="st2" d="M59,18c-5.4,0-17.8,2.9-22.9,8.4C31.9,21.1,19.8,18,14,18c-0.6,0-1,0.4-1,1v31.5c0,0.6,0.4,1,1,1
		c5.8,0,18.4,3.5,21.1,8.5c0,0,0,0,0,0.1c0,0,0,0.1,0.1,0.1c0,0,0.1,0.1,0.1,0.1c0,0,0.1,0,0.1,0.1c0.1,0,0.1,0.1,0.2,0.1
		c0,0,0,0,0.1,0c0,0,0,0,0,0c0.1,0,0.2,0,0.3,0c0.1,0,0.2,0,0.2,0c0,0,0.1,0,0.1-0.1c0,0,0.1,0,0.1,0c0.1-0.1,0.2-0.2,0.3-0.3
		c0,0,0,0,0,0c3.6-4.9,15.9-8.6,22.2-8.6c0.6,0,1-0.4,1-1V19C60,18.4,59.6,18,59,18z M15,49.5V20c6,0.3,17.2,3.6,20,8.2v28.4
		C30.4,52.4,20.6,49.8,15,49.5z M58,49.5c-5.5,0.3-15.8,2.9-21,7.4V28.3c3.6-4.5,14.6-8,21-8.3V49.5z"/>
</g>
</svg>
