<?xml version="1.0" encoding="utf-8"?>
<!-- Generator: Adobe Illustrator 19.1.0, SVG Export Plug-In . SVG Version: 6.00 Build 0)  -->
<svg version="1.1" id="Layer_1" xmlns="http://www.w3.org/2000/svg" xmlns:xlink="http://www.w3.org/1999/xlink" x="0px" y="0px"
	 viewBox="0 0 72 72" style="enable-background:new 0 0 73.1 74.1;" xml:space="preserve">
<style type="text/css">
	.st0{fill:#4D4D4D;}
	.st1{fill:#FFFFFF;}
</style>
<polygon class="st1" points="39,18 12,18 12,20 24,20 24,51 26,51 26,20 39,20 "/>
<path class="st1" d="M57.4,27.1c-0.5-0.2-1.1,0-1.3,0.4L45.8,48.3L35.4,27.6c-0.2-0.5-0.8-0.7-1.3-0.4c-0.5,0.2-0.7,0.8-0.4,1.3
	l11,22l-4.8,8.9c-0.3,0.5-0.1,1.1,0.4,1.4c0.2,0.1,0.3,0.1,0.5,0.1c0.4,0,0.7-0.2,0.9-0.5l5-9.4c0,0,0,0,0,0c0,0,0,0,0,0l11.2-22.5
	C58.1,28,57.9,27.4,57.4,27.1z"/>
<path class="st1" d="M62.5,39.2c0-5.7,4-10.2,8.9-10.2c0.1,0,0.1,0,0.2,0c-0.2-0.7-0.3-1.3-0.5-2c-3.9,0.1-7.2,2.5-9.1,6.1V28h-2v32
	h2V45.4c1.6,3.1,4.3,5.3,7.5,5.9c0.3-0.6,0.5-1.3,0.8-1.9C65.9,48.8,62.5,44.5,62.5,39.2z"/>
</svg>
