<?xml version="1.0" encoding="utf-8"?>
<!-- Generator: Adobe Illustrator 19.1.0, SVG Export Plug-In . SVG Version: 6.00 Build 0)  -->
<svg version="1.1" id="Layer_1" xmlns="http://www.w3.org/2000/svg" xmlns:xlink="http://www.w3.org/1999/xlink" x="0px" y="0px"
	 viewBox="104 137.8 1000 338.2" style="enable-background:new 104 137.8 1000 338.2;" xml:space="preserve">
<style type="text/css">
	.st0{fill:#E6E6E6;}
	.st1{fill:url(#SVGID_1_);}
</style>
<g>
	<path class="st0" d="M328.4,372.3c0,24.3-2.6,43.2-7.9,57c-5.3,13.7-13.6,23.6-24.9,29.7c-11.3,6.1-26.6,9.1-45.7,9.1h-60.3V137.8
		h60.3c20.1,0,35.7,3.3,46.9,9.8s19.2,16.8,24.2,30.6c4.9,13.9,7.4,32.3,7.4,55.3L328.4,372.3L328.4,372.3z M278.2,234.5
		c0-20.1-2-33.7-6-40.9c-4-7.2-11.7-10.8-23.2-10.8h-10.1v240.3H249c11.5,0,19.2-3.6,23.2-10.8c4-7.2,6-20.8,6-40.9V234.5z"/>
	<path class="st0" d="M404.1,324.5v97.6h65.6v46H354.8V137.8h112.5v46h-63.2v94.8h50.7v46L404.1,324.5L404.1,324.5z"/>
	<path class="st0" d="M687.4,468.1h-49.3V137.8h49.3V468.1z"/>
	<path class="st0" d="M977.5,137.8h44.5v330.3h-39.7l-57.4-192.4v192.4h-44.5V137.8H920l57.4,192.4L977.5,137.8L977.5,137.8z"/>
	<path class="st0" d="M615,244.8v-33.3c0-26.8-5.2-46.4-15.2-59.2c-5.3-6.6-12.2-11.5-20.4-14.5h-58c-8.7,3-15.8,7.9-21.3,14.5
		c-10.7,12.8-16,32.4-16,59.2v16.8c0,21.1,2.9,37.6,8.8,49.5c5.9,12,17,23.7,33.3,35.2l18.2,12.9c9.3,6.7,15.1,13.3,17.8,19.9
		c2.7,6.5,3.9,17.2,3.9,31.8v9.6c0,15-1,25.1-3.4,30.6c-2.4,5.4-6.6,8.1-13,8.1h-1.9c-6.4,0-11.1-2.7-13.6-8.3
		c-2.6-5.6-4-15.6-4-30.3v-35.5h-46V392c0,27.8,5.1,48.2,15.3,61.2c10.2,13.1,26,19.6,47.4,19.6h2.9c43.4,0,65.4-26.9,65.4-80.8
		v-23.9c0-20.7-3-36.9-8.8-48.6c-5.7-11.6-16.8-23.2-33.1-34.7l-18.7-13.4c-6.4-4.5-11-8.5-13.9-12.2c-2.9-3.7-5.1-8.1-6.4-13.2
		c-1.3-5.1-2.1-12.8-2.1-23v-6.7c0-13.4,1.4-22.9,4-28.3c2.6-5.4,7.2-8.2,13.6-8.2h1.9c6.4,0,10.7,2.6,13,7.7
		c2.4,5.1,3.5,14.7,3.5,28.8v28.5H615z"/>
	<path class="st0" d="M855,247.8v-24.3c0-32.2-5.2-55.4-15.6-69.4c-5.4-7.4-12.7-12.8-21.7-16.3h-63.1c-9.8,3.7-17.7,9.5-23.7,17.5
		c-11.4,14.8-16.9,38-16.9,69.6v157.5c0,30.3,5.7,52.9,17.3,67.9s29.3,22.5,53.2,22.5h5.7c22.7,0,39.1-7.1,49.3-21.5
		s15.3-37.3,15.3-68.9v-87.6h-69v45h23v38.8c0,18.5-1.7,31-4.5,37.5c-2.9,6.5-8.4,9.7-16,9.7h-1.9c-8.3,0-14.1-3.5-17.5-10.7
		s-5-19.3-5-36.5V229.2c0-18.5,1.5-31.4,4.5-38.6s8.7-10.8,17-10.8h1.9c8.3,0,14.1,3.4,17,10.1s4.5,19.7,4.5,38.8v19.1H855z"/>
</g>
<radialGradient id="SVGID_1_" cx="598.3687" cy="-1766.6666" r="699.3435" gradientTransform="matrix(1 0 0 -6.161207e-02 0 28.6278)" gradientUnits="userSpaceOnUse">
	<stop  offset="0" style="stop-color:#CCCCCC"/>
	<stop  offset="0.6888" style="stop-color:#FCFCFC;stop-opacity:0"/>
	<stop  offset="1" style="stop-color:#FFFFFF;stop-opacity:0"/>
</radialGradient>
<polygon class="st1" points="1081,173.8 127,173.8 127,137.8 1081,137.5 "/>
</svg>
