<?xml version="1.0" encoding="utf-8"?>
<!-- Generator: Adobe Illustrator 19.1.0, SVG Export Plug-In . SVG Version: 6.00 Build 0)  -->
<svg version="1.1" id="Layer_1" xmlns="http://www.w3.org/2000/svg" xmlns:xlink="http://www.w3.org/1999/xlink" x="0px" y="0px"
	 viewBox="0 0 90 100" style="enable-background:new 0 0 90 100;" xml:space="preserve">
<style type="text/css">
	.st0{fill:#CCCCCC;}
	.st1{fill:#4D4D4D;}
</style>
<g>
	<path class="st0" d="M83.9,50.7c1.9,0,4.3-0.3,3.1-1.8c-1.2-1.5-2.4-3-3.3-3.6c-0.9-0.5-2.1-1-5.1-1.1c-3-0.1-15-0.4-20.5,2
		c-2.5,1.1-3.8,2.5-3.8,4.2c0,1.7,0.9,3.6,5.4,5.7c4.5,2.1,11.6,5.7,13.1,6.5c1.5,0.8,1.3,1.3-0.7,1.3c-13.6,0-41.4,7.1-46.3,9.4
		c-2.8,1.3-2.7,2.5,0.4,1.6c13.8-3.8,35.7-4.7,42.9-4.7c7.2,0,11,0.3,13.2,0.7c2.2,0.4,3.9-0.4,5.4-1.6c1.4-1.3,2.4-2.9,0.1-4.7
		c-4.5-3.4-16.3-10.3-22.5-12.5C68.6,50.7,80.8,50.7,83.9,50.7z"/>
	<path class="st0" d="M9,61.1c0,1.9-0.3,4.3-1.8,3.1c-1.5-1.2-3-2.4-3.6-3.3c-0.5-0.9-1-2.1-1.1-5.1c-0.1-3-0.4-15,2-20.5
		c1.1-2.5,2.5-3.8,4.2-3.8c1.7,0,3.6,0.9,5.7,5.4c2.1,4.5,5.7,11.6,6.5,13.1c0.8,1.5,1.3,1.3,1.3-0.7c0-13.6,7.1-41.4,9.4-46.3
		c1.3-2.8,2.5-2.7,1.6,0.4c-3.8,13.8-4.7,35.7-4.7,42.9c0,7.2,0.3,11,0.7,13.2c0.4,2.2-0.4,3.9-1.6,5.4c-1.3,1.4-2.9,2.4-4.7,0.1
		c-3.4-4.5-10.3-16.3-12.5-22.5C9,45.7,9,57.9,9,61.1z"/>
	<path class="st0" d="M36.4,43.8c-1.7,0.2-1.9,2.3-2.3,4.5c-0.7,4.2-0.4,17,2.9,17c2.6,0,3.3-1.4,4-2.4c0.7-1,1.6-3,0.9-6.3
		c-0.7-3.2-2.8-10.6-3.1-11.7C38.3,43.8,37.7,43.6,36.4,43.8z"/>
	<path class="st0" d="M49.3,65.2c1.5-0.2,4.7-1.2,4.4-3.7c-0.4-2.5-3.6-28-4.2-31.5c-0.6-3.5-1.6-5.9-2.8-5.9s-1.7,3.4-1.8,7.2
		c-0.1,3.9-0.2,24.6,0,27.8C45.1,62.4,44.9,65.9,49.3,65.2z"/>
	<path class="st0" d="M38.8,40.9c-1.9,0.7-5.8-0.7-6.2-4.2c-0.4-3.5,1.2-5.9,3-6.4c1.8-0.5,4.9,2.7,5.3,5.3
		C41.2,38.2,41,40.1,38.8,40.9z"/>
</g>
<g>
	<path class="st1" d="M7.5,85.3h1v10.2h2.6v1H7.5V85.3z"/>
	<path class="st1" d="M15.4,85.3h1v11.2h-1V85.3z"/>
	<path class="st1" d="M21.4,85.3h1l3.1,8.4v-8.4h1v11.2h-1l-3.2-8.6v8.6h-1V85.3z"/>
	<path class="st1" d="M31.3,85.3h1.5c2.2,0,3.7,1.9,3.7,5.4v0.3c0,3.6-1.5,5.4-3.7,5.4h-1.5V85.3z M32.9,95.6c1.5,0,2.6-1.4,2.6-4.5
		v-0.3c0-3.1-1.1-4.5-2.6-4.5h-0.5v9.3H32.9z"/>
	<path class="st1" d="M40.6,96.1v-1.1c0.8,0.5,1.4,0.7,1.9,0.7c0.8,0,1.4-0.5,1.4-1.4v0c0-0.8-0.3-1.4-1.4-2.9
		c-1.5-1.9-1.9-2.5-1.9-3.6v0c0-1.5,1-2.5,2.3-2.5c0.7,0,1.2,0.2,1.7,0.5v1.1c-0.6-0.4-1.1-0.6-1.6-0.6c-0.8,0-1.4,0.6-1.4,1.4v0
		c0,0.8,0.3,1.3,1.5,2.7c1.4,1.7,1.9,2.6,1.9,3.8v0c0,1.5-1.1,2.5-2.4,2.5C41.9,96.6,41.3,96.4,40.6,96.1z"/>
	<path class="st1" d="M50.3,86.3h-1.7v-1H53v1h-1.7v10.2h-1V86.3z"/>
	<path class="st1" d="M57.3,85.3h1.6c2,0,3.3,1.2,3.3,3.4v0c0,1.5-0.7,2.6-1.8,3.1l2,4.7h-1.2l-1.8-4.4c-0.1,0-0.3,0-0.5,0h-0.5v4.4
		h-1V85.3z M58.8,91.2c1.3,0,2.2-0.8,2.2-2.5v0c0-1.7-0.9-2.4-2.3-2.4h-0.5v5H58.8z"/>
	<path class="st1" d="M66.4,91.1v-0.4c0-3.7,1.2-5.6,2.8-5.6s2.7,1.9,2.7,5.6v0.4c0,3.7-1.2,5.6-2.7,5.6S66.4,94.8,66.4,91.1z
		 M70.8,91.1v-0.4c0-3.2-0.7-4.6-1.7-4.6c-1,0-1.7,1.5-1.7,4.6v0.4c0,3.2,0.7,4.6,1.7,4.6C70.1,95.7,70.8,94.2,70.8,91.1z"/>
	<path class="st1" d="M76.4,85.3h1.2l1.9,5.7l1.9-5.7h1.2v11.2h-1v-8.9l-2,5.9h-0.1l-2-5.9v8.9h-1V85.3z"/>
</g>
</svg>
