<?xml version="1.0" encoding="utf-8"?>
<!-- Generator: Adobe Illustrator 19.1.0, SVG Export Plug-In . SVG Version: 6.00 Build 0)  -->
<svg version="1.1" id="Layer_1" xmlns="http://www.w3.org/2000/svg" xmlns:xlink="http://www.w3.org/1999/xlink" x="0px" y="0px"
	 viewBox="0 0 72 72" style="enable-background:new 0 0 72 72;" xml:space="preserve">
<style type="text/css">
	.st0{fill:#4D4D4D;}
	.st1{fill:#FFFFFF;}
</style>
<path class="st1" d="M37.1,58c-11.1,0-21.3-7.4-28-20.7C9,37,9,36.9,9.2,36.6C15.7,23.4,25.9,16,37.1,16c0,0,0,0,0,0
	c11.1,0,21.3,7.5,27.9,20.7c0.1,0.3,0.1,0.4,0,0.7C58.4,50.6,48.3,58,37.1,58C37.2,58,37.1,58,37.1,58z M11.2,37
	c6.3,12.3,15.7,19,25.9,19c0,0,0,0,0,0c10.2,0,19.5-6.8,25.8-19c-6.2-12.2-15.6-19-25.8-19c0,0,0,0,0,0C26.8,18,17.4,24.7,11.2,37z"
	/>
<path class="st1" d="M43.5,49h-4c-0.3,0-0.6-0.2-0.8-0.4l-2.1-2.9l-2.1,2.9c-0.2,0.3-0.5,0.4-0.8,0.4h-4c-0.4,0-0.8-0.3-1-0.7
	l-1.2-3.9c-0.1-0.3,0-0.6,0.1-0.9l2.2-3.1l-3.5-1.1c-0.3-0.1-0.5-0.3-0.6-0.6l-1.3-3.8c-0.1-0.4,0-0.9,0.4-1.1l3.2-2.4
	c0.3-0.2,0.6-0.2,0.9-0.1l3.3,1.1v-3.6c0-0.3,0.2-0.6,0.4-0.8l3.5-2.4c0.3-0.2,0.8-0.2,1.1,0l3.5,2.4c0.3,0.2,0.4,0.5,0.4,0.8v3.6
	l3.4-1.1c0.3-0.1,0.7,0,0.9,0.1l3.2,2.4c0.3,0.3,0.5,0.7,0.4,1.1l-1.2,3.9c-0.1,0.3-0.3,0.5-0.6,0.6l-3.5,1.1l2.1,3
	c0.2,0.3,0.2,0.6,0.1,0.9l-1.3,4C44.4,48.7,44,49,43.5,49z M40,47h2.8l0.9-2.8L41,40.5c-0.2-0.3-0.2-0.6-0.1-0.9s0.3-0.5,0.6-0.6
	l4.3-1.4l0.9-2.7l-2.2-1.6l-4.2,1.4c-0.3,0.1-0.6,0-0.9-0.1C39.2,34.3,39,34,39,33.7v-4.5l-2.5-1.7L34,29.2v4.5
	c0,0.3-0.2,0.6-0.4,0.8s-0.6,0.2-0.9,0.1l-4.1-1.4l-2.2,1.6l0.9,2.7l4.3,1.4c0.3,0.1,0.5,0.3,0.6,0.6c0.1,0.3,0.1,0.6-0.1,0.9
	l-2.7,3.8l0.9,2.8h2.8l2.7-3.6c0.2-0.3,0.5-0.4,0.8-0.4l0,0c0.3,0,0.6,0.2,0.8,0.4L40,47z"/>
</svg>
