<?xml version="1.0" encoding="utf-8"?>
<!-- Generator: Adobe Illustrator 19.1.0, SVG Export Plug-In . SVG Version: 6.00 Build 0)  -->
<svg version="1.1" id="Layer_1" xmlns="http://www.w3.org/2000/svg" xmlns:xlink="http://www.w3.org/1999/xlink" x="0px" y="0px"
	 viewBox="0 0 72 72" style="enable-background:new 0 0 72 72;" xml:space="preserve">
<style type="text/css">
	.st0{fill:#00FF00;}
	.st1{fill:#4D4D4D;}
	.st2{fill:#FFFFFF;}
</style>
<g>
	<path class="st2" d="M37,60.5c-0.2,0-0.3,0-0.4-0.1l-18-9c-0.3-0.2-0.6-0.5-0.6-0.9V19c0-0.3,0.2-0.7,0.5-0.9c0.3-0.2,0.7-0.2,1,0
		l18,9c0.3,0.2,0.6,0.5,0.6,0.9v31.5c0,0.3-0.2,0.7-0.5,0.9C37.4,60.5,37.2,60.5,37,60.5z M20,49.9l16,8V28.6l-16-8V49.9z"/>
	<path class="st2" d="M37,60.5c-0.2,0-0.4,0-0.5-0.1c-0.3-0.2-0.5-0.5-0.5-0.9V28c0-0.4,0.2-0.7,0.6-0.9l18-9c0.3-0.2,0.7-0.1,1,0
		c0.3,0.2,0.5,0.5,0.5,0.9v31.5c0,0.4-0.2,0.7-0.6,0.9l-18,9C37.3,60.5,37.2,60.5,37,60.5z M38,28.6v29.3l16-8V20.6L38,28.6z"/>
	<path class="st2" d="M37,29c-0.2,0-0.3,0-0.4-0.1l-18-9C18.2,19.7,18,19.4,18,19c0-0.4,0.2-0.7,0.5-0.9l18-9.1
		c0.3-0.1,0.6-0.1,0.9,0l18,9.1c0.3,0.2,0.6,0.5,0.5,0.9c0,0.4-0.2,0.7-0.6,0.9l-18,9C37.3,29,37.2,29,37,29z M21.2,19L37,26.9
		L52.8,19L37,11L21.2,19z"/>
</g>
</svg>
