<?xml version="1.0" encoding="utf-8"?>
<!-- Generator: Adobe Illustrator 19.1.0, SVG Export Plug-In . SVG Version: 6.00 Build 0)  -->
<svg version="1.1" id="Layer_1" xmlns="http://www.w3.org/2000/svg" xmlns:xlink="http://www.w3.org/1999/xlink" x="0px" y="0px"
	 viewBox="0 0 72 72" style="enable-background:new 0 0 72 72;" xml:space="preserve">
<style type="text/css">
	.st0{fill:#FFFFFF;}
</style>
<path class="st0" d="M39.4,59.1c-0.3,0-0.7-0.2-0.9-0.5l-8.4-14l-4.7,2.8c-0.3,0.2-0.6,0.2-1,0c-0.3-0.1-0.5-0.4-0.6-0.8l-4.5-36
	c-0.1-0.4,0.2-0.8,0.5-1c0.4-0.2,0.8-0.2,1.1,0.1l27,22.5c0.2,0.2,0.4,0.5,0.4,0.8s-0.2,0.6-0.5,0.8l-4.5,2.7l8.4,14
	c0.1,0.2,0.2,0.5,0.1,0.8c-0.1,0.3-0.2,0.5-0.5,0.6l-11.6,6.9C39.7,59,39.6,59.1,39.4,59.1z M30.5,42.2c0.1,0,0.2,0,0.2,0
	c0.3,0.1,0.5,0.2,0.6,0.5l8.4,14l9.9-5.9l-8.4-14c-0.3-0.5-0.1-1.1,0.3-1.4l4.2-2.5l-24-20l4,32l4.2-2.5
	C30.1,42.2,30.3,42.2,30.5,42.2z"/>
</svg>
