<?xml version="1.0" encoding="utf-8"?>
<!-- Generator: Adobe Illustrator 19.1.0, SVG Export Plug-In . SVG Version: 6.00 Build 0)  -->
<svg version="1.1" id="Layer_1" xmlns="http://www.w3.org/2000/svg" xmlns:xlink="http://www.w3.org/1999/xlink" x="0px" y="0px"
	 viewBox="0 0 72.8 72" style="enable-background:new 0 0 72.8 72;" xml:space="preserve">
<style type="text/css">
	.st0{fill:#FFFFFF;}
	.st1{fill:none;}
</style>
<path class="st0" d="M39.5,24.8L38.3,26l-0.6-0.6L23,39.9l0.6,0.6l-1.2,1.2c0.1,0.1,0.1,0.1,0.2,0.2l26.5,13
	c-0.2-0.3-0.2-0.6-0.1-0.9l0.9-2.1L39.7,25.1C39.7,25,39.6,24.9,39.5,24.8z M46.3,43.7l-0.9,0.9l3,8L40.9,49l-0.9,0.8l-1.2-1.2
	l0.4-0.4l-14.9-7.3l14.2-14l6.1,16l0.4-0.4L46.3,43.7z"/>
<polygon class="st0" points="39.3,48.2 40.9,49 45.3,44.7 44.7,42.9 "/>
<polygon class="st0" points="45.3,44.7 46.3,43.7 45.1,42.5 44.7,42.9 "/>
<polygon class="st0" points="38.9,48.6 40.1,49.8 40.9,49 39.3,48.2 "/>
<path class="st0" d="M37.7,25.4l0.6-0.6c0.2-0.2,0.5-0.3,0.8-0.2c0.2,0,0.3,0.1,0.4,0.2l0,0L19.2,4.2c-0.5,0.3-1,0.6-1.5,0.9
	L37.7,25.4z"/>
<path class="st0" d="M22.4,41.7c-0.1-0.1-0.2-0.3-0.2-0.4c0-0.3,0-0.6,0.2-0.7l0.6-0.6L3.9,19.8c-0.3,0.5-0.5,1.1-0.8,1.7L22.4,41.7
	L22.4,41.7z"/>
<path class="st0" d="M23,39.9l-0.6,0.6c-0.2,0.2-0.3,0.5-0.2,0.7c0,0.2,0.1,0.3,0.2,0.4l1.2-1.2L23,39.9z"/>
<path class="st0" d="M39.5,24.8c-0.1-0.1-0.3-0.2-0.4-0.2c-0.3-0.1-0.6,0-0.8,0.2l-0.6,0.6l0.6,0.6L39.5,24.8z"/>
<path class="st0" d="M49.1,54.9l0.5,0.2c0.1,0.1,0.2,0.1,0.4,0.1c0.2,0,0.4-0.1,0.6-0.2c0.3-0.2,0.3-0.6,0.2-0.9l-0.8-2.2L49,54
	C48.9,54.3,48.9,54.6,49.1,54.9z"/>
<path class="st1" d="M66.5,16.8l0.2-0.5h-0.5C66.2,16.5,66.4,16.7,66.5,16.8z"/>
<path class="st1" d="M70.9,27.4h0.5L70.7,25h-0.4C70.5,25.8,70.7,26.6,70.9,27.4z"/>
<path class="st1" d="M66.6,16.4l-0.2,0.5c0.4,0.6,0.7,1.2,1.1,1.9h1.1l-0.7-2.3H66.6z"/>
<path class="st1" d="M69.6,23H70l-0.7-2.3h-0.7C68.9,21.5,69.3,22.2,69.6,23z"/>
<path class="st1" d="M71.7,31.7h1.1L72,29.4h-0.7C71.5,30.1,71.6,30.9,71.7,31.7z"/>
<path class="st0" d="M49.9,55.4L49.9,55.4l0.1-0.2c0,0-0.1,0-0.1,0c-0.1,0-0.3,0-0.4-0.1l-0.5-0.2c0,0,0,0,0,0
	C49.3,55.2,49.6,55.4,49.9,55.4z"/>
<path class="st0" d="M52.4,51h-0.6v-2h1.4l1-2.3h-0.6v-2H55l1-2.3h-0.6v-2h1.4l1-2.3h-0.6v-2h1.4l1-2.3h-0.6v-2h1.4l1-2.3h-0.6v-2
	h1.4l1-2.3h-0.6v-2h1.5l1-2.3h-0.6v-2h1.5l0.8-1.9c-0.1-0.2-0.2-0.3-0.3-0.5H66v-0.2c-0.3-0.4-0.6-0.9-0.9-1.3l-15.3,37l0.6,1.5h1
	L52.4,51z"/>
<path class="st0" d="M50.7,54.1l-0.3-0.7H50v1.8c0.2,0,0.3-0.1,0.5-0.2C50.7,54.8,50.8,54.4,50.7,54.1z"/>
<path class="st0" d="M51.4,53.4h-1l0.3,0.7c0.1,0.3,0,0.7-0.2,0.9c-0.1,0.1-0.3,0.2-0.5,0.2v0.2h16.3c0.4-0.7,0.8-1.3,1.2-2H51.4z"
	/>
<path class="st0" d="M52.4,51h16.3c0.3-0.7,0.6-1.3,0.8-2H53.2L52.4,51z"/>
<polygon class="st0" points="51.8,49 51.8,51 52.4,51 53.2,49 "/>
<path class="st0" d="M54.1,46.7h16.2c0.2-0.7,0.4-1.3,0.6-2H55L54.1,46.7z"/>
<polygon class="st0" points="53.6,44.7 53.6,46.7 54.1,46.7 55,44.7 "/>
<path class="st0" d="M55.9,42.4h15.5c0.1-0.7,0.2-1.3,0.3-2h-15L55.9,42.4z"/>
<polygon class="st0" points="55.3,40.4 55.3,42.4 55.9,42.4 56.8,40.4 "/>
<path class="st0" d="M57.7,38h14.2c0-0.7,0.1-1.3,0.1-2H58.5L57.7,38z"/>
<polygon class="st0" points="57.1,36 57.1,38 57.7,38 58.5,36 "/>
<path class="st0" d="M59.5,33.7h12.4c0-0.7-0.1-1.3-0.2-2H60.3L59.5,33.7z"/>
<polygon class="st0" points="58.9,31.7 58.9,33.7 59.5,33.7 60.3,31.7 "/>
<path class="st0" d="M71.4,29.4H72l-0.6-2h-0.5C71.1,28,71.2,28.7,71.4,29.4z"/>
<path class="st0" d="M61.3,29.4h10.1c-0.1-0.7-0.3-1.3-0.4-2h-8.8L61.3,29.4z"/>
<polygon class="st0" points="60.7,27.4 60.7,29.4 61.3,29.4 62.1,27.4 "/>
<path class="st0" d="M70.3,25h0.4L70,23h-0.5C69.8,23.7,70.1,24.3,70.3,25z"/>
<path class="st0" d="M63.1,25h7.2c-0.2-0.7-0.4-1.3-0.7-2h-5.7L63.1,25z"/>
<polygon class="st0" points="62.4,23 62.4,25 63.1,25 63.9,23 "/>
<path class="st0" d="M68.6,20.7h0.7l-0.6-2h-1.1C67.9,19.3,68.2,20,68.6,20.7z"/>
<path class="st0" d="M64.9,20.7h3.7c-0.3-0.7-0.7-1.3-1-2h-1.9L64.9,20.7z"/>
<polygon class="st0" points="64.2,18.7 64.2,20.7 64.9,20.7 65.7,18.7 "/>
<polygon class="st0" points="66.6,16.4 67.9,16.4 67.4,14.6 "/>
<path class="st0" d="M66.1,16.4c0-0.1-0.1-0.1-0.1-0.2v0.2H66.1z"/>
</svg>
