<?xml version="1.0" encoding="utf-8"?>
<!-- Generator: Adobe Illustrator 19.1.0, SVG Export Plug-In . SVG Version: 6.00 Build 0)  -->
<svg version="1.1" id="Layer_1" xmlns="http://www.w3.org/2000/svg" xmlns:xlink="http://www.w3.org/1999/xlink" x="0px" y="0px"
	 viewBox="0 0 72 72" style="enable-background:new 0 0 72 72;" xml:space="preserve">
<style type="text/css">
	.st0{clip-path:url(#SVGID_2_); fill:transparent}
	
		.st1{clip-path:url(#SVGID_2_);fill:none;stroke:#FFFFFF;stroke-width:2.5;stroke-linecap:round;stroke-linejoin:round;stroke-miterlimit:10;stroke-dasharray:5.000000e-02,5;}
</style>
<g>
	<defs>
		<circle id="SVGID_1_" cx="36.5" cy="37" r="36"/>
	</defs>
	<clipPath id="SVGID_2_">
		<use xlink:href="#SVGID_1_"  style="overflow:visible;"/>
	</clipPath>
	<circle class="st0" cx="36.5" cy="37" r="36"/>
	<path class="st1" d="M24.5,48.5c0-21.8-16.5-36-36-36"/>
	<path class="st1" d="M29,49.3C36.2,28.7,25.4,9.8,7,3.4"/>
	<path class="st1" d="M33,51.5c13.7-17,9.7-38.4-5.5-50.6"/>
	<path class="st1" d="M36,54.9c18.5-11.5,21.9-33,11.6-49.6"/>
	<path class="st1" d="M37.7,59.1C59,54.4,69.3,35.2,65.1,16.2"/>
	<path class="st1" d="M26.9,48.5C30.6,27,16.8,10.2-2.4,6.8"/>
	<path class="st1" d="M31.1,50c10.7-19,3.2-39.5-13.8-49"/>
	<path class="st1" d="M34.7,52.8C51.1,38.4,50.8,16.7,37.9,2"/>
	<path class="st1" d="M37.1,56.7C57.3,48.5,64.3,27.9,57,9.9"/>
	<path class="st1" d="M38,61.2c21.8-1,35.2-18.1,34.3-37.6"/>
</g>
</svg>
